<svg xmlns="http://www.w3.org/2000/svg" viewBox="0 0 60 40">
  <rect width="60" height="6.667" fill="#000000" />
  <rect y="6.667" width="60" height="6.667" fill="#fcdc04" />
  <rect y="13.334" width="60" height="6.667" fill="#ce1126" />
  <rect y="20.001" width="60" height="6.667" fill="#000000" />
  <rect y="26.668" width="60" height="6.667" fill="#fcdc04" />
  <rect y="33.335" width="60" height="6.667" fill="#ce1126" />
  <circle cx="30" cy="20" r="9" fill="#ffffff" />
  <path d="M30 12c-2.2 0-4 1.8-4 4 0 1.6 1 3 2.5 3.6l-1.7 4.4c-.5 1.3.5 2.6 1.9 2.6h3.6l-1.6-4 2.3-2.1c.8-.7 1.3-1.8 1.3-2.9 0-2.2-1.8-4-4-4zm-.2 2c1.1 0 2 .9 2 2s-.9 2-2 2-2-.9-2-2 .9-2 2-2z" fill="#555555" />
  <path d="M30 27l-1.4 4h2.8z" fill="#ce1126" />
  <circle cx="30" cy="20" r="9" fill="none" stroke="#000000" stroke-width="1" />
</svg>
