<svg width="48" height="48" viewBox="0 0 48 48" xmlns="http://www.w3.org/2000/svg" role="img" aria-label="WhatsApp icon">
  <defs>
    <linearGradient id="whats-gradient" x1="0%" y1="0%" x2="100%" y2="100%">
      <stop offset="0%" stop-color="#39d98a" />
      <stop offset="100%" stop-color="#1a9f63" />
    </linearGradient>
  </defs>
  <path fill="url(#whats-gradient)" d="M24 4C13 4 4 12.7 4 23.5a19 19 0 0 0 2.7 9.9L4 44l10.9-2.8a19.7 19.7 0 0 0 9.1 2.2c11 0 20-8.7 20-19.5S35 4 24 4zm11 24.3c-.5 1.5-2.4 2.7-4 3-1 .1-2.3.2-7.3-1.6-6.1-2.4-10-8.3-10.3-8.7-.3-.4-2.4-3.2-2.4-6s1.5-4.3 2-4.9c.5-.6 1.1-.7 1.5-.7h1.1c.3 0 .9-.1 1.4 1 .5 1.2 1.7 4.2 1.9 4.5.2.3.3.7.1 1.1-.2.4-.3.7-.6 1.1-.3.4-.6.8-.8 1-.3.3-.6.6-.3 1.1.3.6 1.4 2.3 3 3.7 2 1.7 3.6 2.3 4.1 2.6.5.3.8.2 1.2-.1.3-.4 1.4-1.6 1.8-2.2.4-.6.8-.5 1.2-.3.5.3 3.3 1.5 3.8 1.8.6.3 1 .4 1.1.7.2.3.2 1.7-.3 3.1z" />
</svg>
